<?xml version="1.0" encoding="utf-8"?>
<!-- Generator: Adobe Illustrator 24.1.0, SVG Export Plug-In . SVG Version: 6.00 Build 0)  -->
<svg version="1.1" id="Layer_1" xmlns="http://www.w3.org/2000/svg" xmlns:xlink="http://www.w3.org/1999/xlink" x="0px" y="0px"
	 viewBox="0 0 1920 1080" style="enable-background:new 0 0 1920 1080;" xml:space="preserve">
<style type="text/css">
	.st0{fill:#1313EC;}
</style>
<path class="st0" d="M974.2,477.6c-0.2-1-0.4-1.8-0.7-2.9c4.6-2.1,9.2-4,13.6-6.3c10.2-5.3,20.2-10.9,30.4-16.2
	c3.6-1.9,7.5-3.5,11.3-4.9c3.6-1.3,5.2-0.3,5.5,3.6c0.4,5.2,0.8,10.4,0.8,15.6c-0.1,23-0.6,46-0.3,68.9c0.1,9.1,1,18.3,2.8,27.1
	c2,10.1,6.9,18.8,17.6,22.6c0.7,0.2,0.9,1.8,1.3,2.7c-8.4,0-16.2,0-24.1,0c-14.8,0-29.5-0.3-44.3,0.2c-10,0.3-19.9,2-29.9,2.4
	c-8,0.3-16.2,0.1-24.1-1.1c-10.6-1.5-19.5-6.8-26.3-15c-5.5-6.6-10.6-13.7-15.3-20.9c-6.1-9.4-11.7-19.1-17.5-28.7
	c-1.3-2.2-2.7-3-4.9-1.4c-0.3,0.2-0.7,0.3-1.1,0.4c-6.5,2.7-6.6,2.7-6.4,9.9c0.4,10.9,0.4,21.8,3.4,32.4c2.6,9.3,7.8,16.2,17.6,19.3
	c-0.1,0.9-0.2,1.8-0.3,2.5c-27.1,0-53.9,0-80.9,0c-0.4-1-1.2-2.4,1-3.1c10.2-3.4,14.4-11.6,16-21.1c1.4-8.2,2.3-16.6,2.4-24.9
	c0.3-26.7,0.4-53.4,0-80.2c-0.2-16.7-1.3-33.4-2.3-50c-0.3-4.4-1.2-8.8-2.3-13c-2.1-7.6-8.9-11.9-16.7-10.7c-2.6,0.4-2.7-1.1-3-3.1
	c4.2-1.7,8.6-3.2,12.7-5.1c10.5-4.8,20.9-9.9,31.4-14.8c4.8-2.2,9.7-4.3,14.6-6.2c3.2-1.2,5.5,0.4,5.6,3.9c0.5,14.3,1.1,28.6,1.1,43
	c0,37.8-0.3,75.6-0.5,113.5c0,0.9,0,1.7,0,3.2c2.9-0.9,5.5-1.6,8-2.5c10.6-4,20.2-9.6,28-18c6.3-6.8,9.8-14.6,8-24.2
	c-1.6-8.3-6.5-13.9-14.1-17.3c-1.7-0.8-2.6-1.6-1.9-3.2c24.1,0,48.1,0,72.3,0c1,1.5,0.6,2.5-1.6,3.3c-8.5,3.3-15.3,9.1-22.1,14.9
	c-11.8,10.1-23.5,20.3-35.2,30.5c-0.3,0.3-0.5,0.6-0.9,1c1.9,2.2,3.9,4.2,5.6,6.4c10.4,13.7,20.8,27.4,31.2,41.1
	c7.7,10.2,16.2,19.8,26.5,27.5c1.6,1.2,3.3,2.1,4.9,3.3c3.7,2.8,7,2.3,10.7-0.3c4.1-3,6.7-6.8,8.3-11.5c3.2-9.1,4.1-18.6,4.5-28.1
	c0.5-15.6,0.7-31.2-1.6-46.7c-0.3-2.3-0.9-4.6-1.6-6.9C988.6,479.1,984.5,476.5,974.2,477.6z"/>
<path class="st0" d="M1299.2,568.2c7.4,1,14.8,1.9,22.2,2.9c13.9,1.9,27.6,4.3,40.4,10.1c9.7,4.3,17.6,10.5,20.5,21.3
	c3.2,11.5,0.8,21.8-7.9,30.3c-8,7.9-17.8,12.5-28.4,15.6c-28.3,8.3-56.9,9.3-85.6,2c-8.1-2-15.6-5.5-21.4-11.8
	c-7.6-8.1-7.6-18.8,0.2-26.7c2.5-2.6,5.4-5,8.6-6.6c7.3-3.5,14.9-6.6,22.5-9.5c4.2-1.6,8.6-2.6,13.4-4c-0.8-0.4-1.2-0.8-1.6-0.9
	c-7.7-1.2-15.3-2.5-23-3.5c-2.6-0.3-3.4-1.4-3.3-3.9c15.9-8.3,31.8-16.7,48.4-25.4c-4.1-1.2-7.6-2.2-11.1-3.3
	c-9.5-3-18.5-7.2-26.7-12.8c-22.7-15.5-25.1-40.2-13.4-60.9c9.6-17,24.8-26,43.5-29.8c10.5-2.1,20.7-1.2,30.8,2.3
	c1.1,0.4,2.7,0.3,3.9-0.2c6.1-2.4,11-6.4,15.6-10.9c3.3-3.2,6.6-6.4,10-9.6c12.3-11.8,26.5-3.8,29.5,9.7c0.6,2.5,0.9,5.1,0.6,7.6
	c-0.8,7.5-6.5,12.5-14.5,11.9c-6.8-0.5-13.6-2.1-20.4-3.1c-5.3-0.8-10.6-1.5-15.9-2.3c-0.1,0.3-0.1,0.5-0.2,0.8
	c0.9,0.5,1.8,1,2.7,1.5c11.5,6.3,20.8,14.7,25.3,27.2c6.5,18,2.9,34.2-10.4,48.1c-6.8,7.1-14.9,12.4-23.6,17
	c-9.4,5-18.8,9.8-28.3,14.6c-0.9,0.4-1.7,0.9-2.5,1.4C1299.1,567.8,1299.2,568,1299.2,568.2z M1270,623.6c-0.1,2.6,0.9,6.7,3.3,10.2
	c7.6,10.9,19,14.6,31.5,14.8c5,0.1,10.2-1.8,15.2-3.3c6.2-1.8,11.8-4.9,16.4-9.6c7.8-7.9,9.4-23.6-3.3-31.2c-2.6-1.6-5.3-3.2-8.1-4
	c-8-2.2-16.3-3.6-24.2-6.1c-8.7-2.8-14.7,1.1-20.6,6.4C1273.8,606.3,1270.2,613.3,1270,623.6z M1309.5,553.9
	c4.7-4.3,7.9-9.3,10.3-14.8c7.2-17.4,8.6-35.3,4.3-53.6c-2.6-11.1-8-20.6-17.2-27.8c-1.7-1.4-3.2-1.5-4.5,0.3
	c-3.2,4.3-7,8.4-9.3,13.1c-7.4,15.7-8.2,32.3-4.9,49.2C1291,534,1297.9,545.2,1309.5,553.9z"/>
<path class="st0" d="M219.8,588.1c-27.8,0-54.4,0-81.4,0c-0.3-0.9-1.3-2.3,0.9-3.1c10.2-3.4,14.2-11.5,16.1-21.1
	c1-4.9,1.8-9.9,1.9-14.9c0.2-14.9,0.2-29.8-0.1-44.8c-0.1-4.9-1.1-9.8-2.2-14.5c-2.5-10.4-6.7-13.2-17.4-12.3
	c-0.2-0.8-0.5-1.6-0.8-2.6c0.8-0.4,1.6-0.8,2.3-1.2c11.9-6.2,23.8-12.4,35.8-18.5c5.6-2.8,11.3-5.6,17.1-7.9c3.6-1.4,5-0.4,5.3,3.3
	c0.5,6,0.8,11.9,1,17.9c0.1,2.6,0,5.3,0,8.5c1.4-0.9,2.3-1.6,3.2-2.2c9.4-7.1,19-14,29.7-19c8.8-4.1,18-6.1,27.8-4.2
	c13.5,2.6,22.5,11.6,24.2,26.4c1.5,13.1,1.7,26.4,2.5,39.6c0.9,14.8,1.8,29.6,3.1,44.3c0.3,3.4,1.6,6.9,3,10.1
	c2.7,6.4,7.3,10.9,14.1,12.8c2.2,0.6,2.8,1.6,1.7,3.2c-26.9,0-53.7,0-81.2,0c0.4-1,0.6-2.8,1.4-3.2c9.3-4.9,13.3-13.2,15-23
	c2.5-14.7,2.5-29.5,1.9-44.4c-0.3-8.1-1-16.3-2.5-24.2c-2.9-14.5-14.9-21.7-29.2-17.5c-4.6,1.3-8.9,4.1-13.2,6.4
	c-0.8,0.4-1.5,1.9-1.5,2.9c0.1,20.4,0.1,40.9,0.8,61.3c0.2,7.5,1.6,15,3.5,22.3c2,7.7,7,13.5,14.7,16.6
	C218.5,585.5,218.9,586.8,219.8,588.1z"/>
<path class="st0" d="M1231.7,585.8c-0.2,1-0.3,1.8-0.5,2.8c-13.5-0.3-26.9-0.9-40.2-0.9c-13.4,0-26.7,0.5-40.3,0.7
	c-0.5-1.4-1.1-2.7,1-3.7c9.2-4.7,13.1-12.9,14.8-22.5c2.6-14.8,2.5-29.7,1.9-44.6c-0.3-8.1-1-16.3-2.5-24.2
	c-2.9-14.8-15.2-21.9-29.7-17.4c-4.3,1.3-8.3,3.8-12.4,6.1c-0.9,0.5-1.7,2.2-1.7,3.3c0.1,20.2,0.1,40.5,0.7,60.7
	c0.2,7.2,1.4,14.5,3.1,21.5c2.1,8.2,7,14.6,15.4,17.8c0.8,0.3,1.1,1.7,2.1,3.4c-14.3-0.3-27.7-0.9-41-0.9c-13.4,0-26.7,0.5-40.3,0.8
	c-0.5-1.2-1.5-2.6,0.7-3.4c10.2-3.3,14.2-11.5,16.2-21.1c1-5,1.8-10.1,1.9-15.1c0.2-14.9,0.2-29.8-0.1-44.8
	c-0.1-4.9-1.1-9.9-2.3-14.8c-2.4-9.8-7.1-12.9-17.3-11.7c-0.2-0.9-0.5-1.8-0.7-2.6c9.2-4.6,18.3-9,27.3-13.6
	c7.3-3.8,14.4-8,21.7-11.8c2.2-1.2,4.7-1.9,7.2-2.6c2.5-0.7,4,0.3,4.2,3c0.5,6.1,0.8,12.1,1.1,18.2c0.1,2.7,0,5.5,0,8.9
	c1.2-0.8,2.1-1.4,2.9-2c8.8-5.9,17.4-12.1,26.6-17.4c8.6-5,18-7.8,28.2-6.4c15.7,2.2,25.2,10.8,27.2,26.7
	c1.6,13.1,1.7,26.4,2.5,39.6c0.9,14.8,1.8,29.6,3.1,44.3c0.3,3.4,1.6,6.9,3,10.1C1218.5,579.4,1222.1,582.2,1231.7,585.8z"/>
<path class="st0" d="M1790.8,564.8c-0.4,1-0.6,2.6-1.3,3c-14,7-27.9,13.9-42,20.6c-3.1,1.5-6.5,2.1-9.9,2.8
	c-3.5,0.8-4.6,0.1-5.1-3.4c-0.9-6.9-1.5-13.8-2.2-20.8c-0.1-0.5-0.1-1-0.3-2c-1.3,1-2.4,1.8-3.4,2.6c-9.9,7.8-20,15.3-31.8,20.2
	c-9.5,3.9-19.2,5.1-29.1,1.8c-11.8-4-17.7-13.1-20.6-24.6c-2.7-10.7-2.3-21.6-2.5-32.5c-0.2-11.8-0.5-23.6-1.1-35.3
	c-0.2-3.5-1-7-2-10.4c-2.2-7.5-7.5-10.6-15.3-9.3c-0.4,0.1-0.8,0.1-1.2,0.1c-0.8-1.5-1.5-2.7,0.7-3.8c14.1-6.7,28.1-13.6,42.2-20.2
	c3.5-1.7,7.4-2.7,11.2-3.7c3.1-0.8,4.6,0.1,5.3,3.4c0.5,2.3,0.9,4.6,0.9,7c0.1,19.7-0.2,39.5,0.1,59.2c0.2,9.8,0.9,19.6,2.3,29.3
	c2.3,15.9,14.3,20.4,27.4,17.7c5.3-1.1,10.3-4.1,15.3-6.5c0.9-0.4,1.7-2,1.6-3c-0.1-18.5-0.3-36.9-0.6-55.4
	c-0.1-3.6-0.9-7.2-1.6-10.7c-2.2-10.1-6.4-13.5-16.9-13.5c-0.2-0.8-0.4-1.6-0.6-2.4c8.4-3.9,16.6-7.8,24.9-11.7
	c8.4-3.9,16.7-7.8,25.1-11.5c2.2-1,4.7-1.4,7.1-1.9c3.7-0.8,5.3,0.5,4.9,4.3c-1.9,22.8-1.8,45.7-1.7,68.6c0,10.1,0.5,20.2,3,30.1
	c0.6,2.5,1.7,5.1,3.1,7.2c3.1,4.6,7.8,5.1,12.9,4.1C1790.2,564.4,1790.5,564.6,1790.8,564.8z"/>
<path class="st0" d="M1538.5,450.2c22.4,1,41.9,8.2,56.5,25.7c12.1,14.6,16.1,31.7,14.7,50.4c-2.1,28.2-24.7,56.8-60.4,63.3
	c-19.7,3.6-38.5,0-55.5-10.5c-21.6-13.3-32.2-32.9-31.8-58.3c0.5-33.8,23.2-60.9,57-68.2c3.2-0.7,6.4-1.3,9.6-1.7
	C1531.9,450.5,1535.3,450.4,1538.5,450.2z M1564.1,525.8c-0.2-12.3-1.3-24.1-4.6-35.6c-2.9-10.2-6.6-20.1-14.6-27.4
	c-9.8-9-15.3-8.5-24.1,1.2c-5.2,5.7-7.9,12.8-9.8,20.2c-4.4,16.8-4.6,33.8-2.1,50.8c1.6,11.2,4.7,22.1,10.5,31.9
	c3.9,6.5,8.8,12.1,15.5,15.8c5.2,2.9,7.3,2.7,12-1.1c4.9-4.1,7.9-9.5,10.2-15.2C1562.4,553.2,1563.9,539.4,1564.1,525.8z"/>
<path class="st0" d="M452.3,588.1c-27.7,0-54.6,0-81.8,0c-0.4-1-1.3-2.4,1-3.1c10.2-3.3,14.4-11.5,16-21.1
	c1.4-8.2,2.3-16.6,2.3-24.8c0.1-32.5,0-65-0.6-97.5c-0.2-13.5-1.7-27-2.9-40.5c-0.4-4.5-1.7-8.9-5.4-12.1c-3.4-3-7.3-4.6-11.9-3.8
	c-2.4,0.4-3.6-0.3-3.4-3.1c6.2-2.5,12.5-4.8,18.6-7.6c8.6-3.9,16.9-8.3,25.4-12.4c4.7-2.2,9.5-4.3,14.3-6.1c3.2-1.2,5.8,0.6,5.9,3.9
	c0.4,14.5,1.1,29,1.1,43.5c0,40.9-0.5,81.7-0.3,122.6c0.1,12.6,1.2,25.3,2.9,37.8c1.4,9.9,6.9,17.6,16.8,21.4
	C451.2,585.5,451.6,587,452.3,588.1z"/>
<path class="st0" d="M1855.9,454.4c14.8,0,29.1,0,44.1,0c-0.8,6.3-1.6,12.3-2.5,18.2c-0.1,0.5-1.9,1.1-2.9,1.1
	c-11.6,0-23.2-0.1-34.8-0.1c-1,0-2,0-3.2,0c-0.1,1-0.2,1.8-0.2,2.6c0,19.2-0.1,38.3,0.1,57.5c0.1,6.6,0.6,13.4,1.7,19.9
	c1.9,11.2,9.9,16,21,13.4c5.3-1.3,8.6-3.1,16-9.1c0.8,1.1,1.7,2.2,2.8,3.7c0.1-0.4,0.1-0.2,0-0.1c-11.9,13.8-25.3,25.4-43.9,28.9
	c-5.4,1-11.2,1-16.7,0.1c-11.9-2-18.4-10-20.4-21.5c-1-6-1.3-12.1-1.4-18.2c0-22.1,0.2-44.2,0.3-66.3c0-3.5,0-7,0-10.7
	c-7.7,0-15.1,0-22.6,0c-0.2-0.7-0.4-1.7-0.6-2.4c6.1-4.3,12.1-8.3,17.9-12.7c16.8-12.8,29.8-29,41-46.8c0.6-0.9,1.5-2,2.4-2.1
	c1.8-0.2,3,0.5,2.9,2.9c-0.5,12.2-0.8,24.3-1.1,36.5C1855.9,451,1855.9,452.5,1855.9,454.4z"/>
<path class="st0" d="M133.5,588.5c-14.3-0.3-27.7-0.8-41.2-0.8c-13.5,0-26.9,0.4-40.7,0.7c-0.2-0.8-0.3-1.7-0.5-2.7
	c1.1-0.4,2-0.8,2.9-1.2c6.5-2.6,10.8-7.2,13.1-13.9c3.1-9.2,4.2-18.8,4.5-28.4c0.5-15.5,0.7-31-1.6-46.5c-0.4-2.5-1-5-1.8-7.4
	c-3.1-9.4-7.3-11.9-17.3-10.7c-0.2-0.8-0.5-1.7-0.8-2.9c3.5-1.6,6.9-3,10.2-4.7c10.2-5.3,20.3-10.8,30.5-16c5-2.5,10.1-4.8,15.3-6.8
	c3.1-1.2,4.6-0.1,4.9,3.4c0.5,5.3,0.8,10.6,0.8,15.9c-0.1,23.1-0.4,46.2-0.4,69.2c0,9.7,0.4,19.4,3.3,28.9
	c2.8,9.3,7.3,17.2,17.2,20.7C132.5,585.5,132.8,587.1,133.5,588.5z"/>
<path class="st0" d="M531.4,418.4c44.7,0.1,81.1,28.8,90.5,69.9c7.5,33.1-7.2,68.3-36.8,88.5c-37.3,25.3-89.4,19.6-119.8-13
	c-40.7-43.9-26-112.9,29.3-137.2C506.9,421.2,519.7,418.6,531.4,418.4z M532.9,577.8c9.8,0,19.3-1.8,28.5-5.3
	c48.6-18.7,63.1-78,28-115c-29.1-30.8-79-32.2-109.9-3.2c-27.8,26.1-30.4,67.8-5.6,96.7C489.3,568.9,509.4,577.3,532.9,577.8z"/>
<path class="st0" d="M722,592.7c-44.3,0.1-81-28.8-90.3-70c-7.5-33.2,7.3-68.5,37.2-88.7c37-24.9,88.5-19.4,119,12.8
	c38.7,40.8,28.7,105.5-20.5,133.5C752.9,588.6,737.2,592.5,722,592.7z M716.1,577.7c14.5,0,23.9-1.7,32.9-5.2
	c48.7-18.5,63.4-77.7,28.5-114.9c-29.1-31-79.2-32.5-110.1-3.4c-27.8,26.2-30.3,67.8-5.5,96.7C677.3,569,697.4,577.3,716.1,577.7z"
	/>
<path class="st0" d="M94.3,382.3c8.5,0,15,4.1,17.9,11c3.1,7.5,1.5,16.1-4.5,21.7c-3.1,2.8-6.7,5.1-10.3,7.2
	c-5.9,3.4-11.9,6.4-17.9,9.6c-1.7,0.9-3.3,1.1-4.4-0.7c-5.4-9.3-8.6-19.3-5.9-30.1C72.1,389.5,82.1,382.3,94.3,382.3z"/>
<path class="st0" d="M1017.6,382.3c8.5,0,15.1,4,18,10.9c3.2,7.6,1.5,16.2-4.6,21.9c-2.7,2.5-5.9,4.6-9.1,6.5
	c-6.3,3.6-12.8,6.9-19.2,10.3c-1.7,0.9-3.3,0.9-4.3-0.9c-5.3-9.2-8.3-18.9-5.9-29.5C995.1,389.9,1005.4,382.3,1017.6,382.3z"/>
</svg>
